<?xml version="1.0" encoding="UTF-8" standalone="no"?>
<svg
   xmlns:dc="http://purl.org/dc/elements/1.1/"
   xmlns:cc="http://creativecommons.org/ns#"
   xmlns:rdf="http://www.w3.org/1999/02/22-rdf-syntax-ns#"
   xmlns:svg="http://www.w3.org/2000/svg"
   xmlns="http://www.w3.org/2000/svg"
   xmlns:sodipodi="http://sodipodi.sourceforge.net/DTD/sodipodi-0.dtd"
   xmlns:inkscape="http://www.inkscape.org/namespaces/inkscape"
   inkscape:version="1.0 (4035a4fb49, 2020-05-01)"
   sodipodi:docname="orgstrap-horse.svg"
   id="svg44"
   xml:space="preserve"
   enable-background="new -7.65 -13.389 162 176"
   viewBox="-7.65 -13.389 162 176"
   height="176px"
   width="162px"
   y="0px"
   x="0px"
   version="1.1"><metadata
   id="metadata48"><rdf:RDF><cc:Work
       rdf:about=""><dc:format>image/svg+xml</dc:format><dc:type
         rdf:resource="http://purl.org/dc/dcmitype/StillImage" /><dc:title></dc:title></cc:Work></rdf:RDF></metadata><sodipodi:namedview
   inkscape:current-layer="svg44"
   inkscape:window-maximized="0"
   inkscape:window-y="327"
   inkscape:window-x="1282"
   inkscape:cy="66.363035"
   inkscape:cx="90.869703"
   inkscape:zoom="10.102273"
   showgrid="false"
   id="namedview46"
   inkscape:window-height="1029"
   inkscape:window-width="1752"
   inkscape:pageshadow="2"
   inkscape:pageopacity="0"
   guidetolerance="10"
   gridtolerance="10"
   objecttolerance="10"
   borderopacity="1"
   bordercolor="#666666"
   pagecolor="#ffffff" />
<defs
   id="defs2">
</defs>
<path
   sodipodi:nodetypes="ccccccccscccccscccccccccccccccccccccccccccccccc"
   id="path4"
   d="m 141.044,59.449 c -0.205,-3.15 -2.842,-4.366 -5.993,-2.125 -7.219,-1.297 -14.305,-0.687 -17.8,-0.981 -7.662,-1.073 -14.041,-5.128 -14.041,-5.128 0.932,-1.239 0.486,-3.917 -5.498,-4.101 C 96.066,46.572 93.572847,46.034248 91.746576,45.349038 88.79378,44.237923 87.482369,43.575343 84.197,40.271 c -1.319,-1.568 -2.603,-4.429 -2.584,-8.294 0,-3.275 -6.099,0.318 -6.099,6.784 0,0.556 -0.057,1.061 -0.135,1.542 -2.11,0.243 -4.751,0.707 -8.08,1.494 -0.106,0.073 -0.157,0.186 -0.182,0.316 C 66.986,41.628 66.886,41.112 66.84,40.56 66.258,36.77 61.906,31 59.783,38.126 c -1.096,2.611 -1.74,4.392 -2.115,5.789 v 0 c 0,0 -0.336,0.226 -0.957,0.61 -2.619,1.622 -3.562,6.686 -13.075,9.883 -3.211,1.079 -7.4,1.945 -12.959,2.395 -9.57,0.773 -27.888,17.314 -29.115,33.097 -0.283,3.964 0.31,13.737 3.596,22.31 0.002,0.006 0.003,0.014 0.005,0.02 0.015,0.042 0.032,0.081 0.048,0.122 0.052,0.134 0.103,0.267 0.156,0.398 0.28,0.718 0.579,1.405 0.895,2.062 1.885,4.028 4.46,7.59 7.934,9.882 1.764,1.376 3.342,2.258 4.372,2.762 5.907,9.749 18.442,22.252 42.075,14.859 36.255,-10.284 56.263,13.809 58.568,15.5 3.399,3.433 -8.786,-29.835 -34.587,-44.788 -15.253,-8.322 -5.678,-22.656 -4.585,-27.718 0,0 12.227,8.557 21.087,-4.52 8.004,2.062 13.367,-1.462 20.251,1.03 4.183,1.833 21.77,0.726 15.234,-9.104 4.11,-2.683 4.544,-1.815 6.6,-5.9 1.104,-4.952 -1.403,-6.012 -2.167,-7.366 z M 70.751,46.15 c -0.041,0.018 -0.086,0.04 -0.125,0.056 0.039,-0.034 0.075,-0.062 0.115,-0.102 0.003,0.014 0.007,0.032 0.01,0.046 z m -13.413,4.523 c -0.073,0.429 -0.143,0.829 -0.212,1.216 0.037,-0.832 0.085,-1.714 0.143,-2.646 0.024,0.435 0.05,0.904 0.069,1.43 z M 68.031,44.34 c 0.746,1.124 1.662,2.179 1.662,2.179 0,0 -0.875,-0.79 -1.662,-2.179 z"
   stroke-width="3"
   stroke="#000000"
   fill="#a04d32" />
<path
   sodipodi:nodetypes="ccccccccccccccccsccccccc"
   style="fill:#ccc0ab;fill-opacity:1"
   id="path6"
   d="m 14.093,117.635 c 0,0 10.021,36.105 46.549,24.68 36.255,-10.284 56.263,13.809 58.568,15.5 3.399,3.433 -8.786,-29.835 -34.587,-44.788 -15.253,-8.322 -5.678,-22.656 -4.585,-27.718 0,0 12.227,8.557 21.087,-4.52 8.004,2.062 13.367,-1.462 20.251,1.03 4.183,1.833 21.77,0.726 15.234,-9.104 4.11,-2.683 4.544,-1.815 6.6,-5.9 1.105,-4.952 -1.402,-6.011 -2.166,-7.366 -0.205,-3.15 -2.842,-4.366 -5.993,-2.125 -7.219,-1.297 -14.305,-0.687 -17.8,-0.981 -7.662,-1.073 -14.041,-5.128 -14.041,-5.128 0.932,-1.239 0.486,-3.917 -5.498,-4.101 -5.65084,-2.320939 -8.434981,-1.953216 -12.202,-5.699 -1.099498,-1.133705 -3.924,-4.252 -3.899,-9.438 0,-3.275 -6.099,0.318 -6.099,6.784 0,6.466 -5.818,7.758 -5.818,7.758 0,0 -2.549,-2.281 -2.855,-5.958 -0.582,-3.79 -4.934,-9.56 -7.057,-2.434 -3.226,7.646 -3.485,9.43 -4.115,13.154 -1.31,7.711 -0.345,8.012 -0.345,8.012 l -32.824,23.43 z"
   stroke-width="0.5"
   stroke="#000000"
   fill="#77AA99" />
<path
   style="stroke:#554b49;stroke-opacity:1"
   id="path8"
   d="M91.756,56.215  c1.548-0.562,0.896-0.415,1.152-0.581c-2.959,0.575-9.635,0.614-14.317-1.133c0.392,0.23,2.568,0.962,2.845,1.128  c0.218,0.715,0.1,1.438,2.932,2.709c2.559,0.793,5.845,0.461,6.835-0.529C91.312,56.125,91.329,56.744,91.756,56.215z"
   stroke-linejoin="round"
   stroke-linecap="round"
   stroke-width="0.75"
   stroke="#314B49"
   fill="#314B49" />
<path
   style="stroke:#554b49;stroke-opacity:1;fill:#554b49;fill-opacity:1"
   id="path10"
   d="M124.124,75.361c-2.829-2.085-4.881-0.264-6.469-0.413  c0.99-0.645,3.762-2.062,8.245-2.062c2.532,0,3.879,2.196,5.57,2.207c1.141,0.007,4.472-1.71,5.14-2.378  c-0.969,0.838,0.454,1.755-0.489,3.003c-0.282,0.359-0.837,1.511-2.663,2.051C131.408,78.74,128.047,79.531,124.124,75.361z"
   stroke-width="0.5"
   stroke="#314B49"
   fill="#314B49" />
<path
   style="fill:#554b49;fill-opacity:1"
   id="path12"
   d="M62.577,37.415c0,0-3.355,7.996,0.312,15.329s0.522-6.829,4.688-4.162c3.397,0.385-2.387-3.215-2.033-7.819  C65.368,37.871,63.774,35.569,62.577,37.415z"
   fill="#314B49" />
<path
   style="fill:#554b49;fill-opacity:1"
   id="path14"
   d="M126.981,63.799c0,1.121-1.363,2.03-3.045,2.03c3.573-1.121-0.201-4.653-3.045-2.03  c0-1.121,1.363-2.03,3.045-2.03S126.981,62.678,126.981,63.799z"
   fill="#314B49" />
<path
   style="fill:#554b49;fill-opacity:1"
   id="path16"
   d="M121.814,61.215c3.772-0.231,6.336,0.323,5.536,3.138c0.548-1.126,1.292-2.83-1.046-3.507  C124.558,60.458,123.005,60.468,121.814,61.215z"
   fill="#314B49" />
<path
   style="fill:#784d32;fill-opacity:1"
   id="path18"
   d="M67.574,82.616c0-3.521-1.509-7.166-7.04-14.583  c-1.635-2.192-2.62-4.336-3.211-6.275c-1.401-3.295-3.426-8.019-0.613-17.233c0,0,0.621-0.384,0,0  c-2.619,1.622-3.562,6.686-13.075,9.883c-3.211,1.079-7.4,1.945-12.959,2.395C21.107,57.576,2.789,74.117,1.562,89.9  c-0.283,3.964,0.31,13.737,3.596,22.31c0.002,0.006,0.003,0.014,0.005,0.02c0.015,0.042,0.032,0.081,0.048,0.122  c0.052,0.134,0.103,0.267,0.156,0.398c0.28,0.718,0.579,1.405,0.895,2.062c1.885,4.028,4.46,7.59,7.934,9.882  c3.084,2.404,5.606,3.306,5.606,3.306c-2.588-3.578-3.77-7.562-2.263-12.32c0.651,2.637,1.903,4.162,3.646,4.777  c-0.615-1.884-0.827-3.549,0-4.651c2.567,6.734,5.353,9.031,8.171,10.686c-2.631-4.914-4.032-10.005-3.771-15.337  c2.569,6.028,6.596,9.945,10.56,13.954c-3.78-5.966-6.911-12.104-6.977-19.046c1.693,2.778,3.935,4.932,6.6,6.601  c-1.683-2.709-2.505-5.51-2.263-8.423c4.424,4.945,9.361,6.607,14.332,8.046c-5.197-3.625-9.843-7.537-12.32-12.572  c2.972,1.464,5.948,1.693,8.926,1.383c-3.706-1.872-5.069-5.252-5.783-9.052c5.177,5.279,10.587,8.827,16.091,11.692  c-5.456-5.26-9.479-10.65-11.566-16.218c2.1,1.18,4.157,1.736,6.16,1.509c-2.766-3.124-3.465-6.182-4.211-9.241  c2.637,3.916,4.959,6.022,7.103,7.103c-2.189-4.482-2.034-8.432-0.503-12.068c2.524,1.675,4.902,4.295,6.915,9.303  c0.731-2.386-0.447-6.364-1.886-10.56c2.175,0.622,4.779,3.351,8.171,9.932c-0.33-3.865-2.139-7.775-4.148-11.692  C63.813,75.316,68.343,84.519,67.574,82.616z"
   stroke-width="0.5"
   stroke="#000000"
   fill="#A04D32" />







<path
   style="fill:#784d32;fill-opacity:1"
   id="path34"
   d="M83.997,43.672c-0.45-0.45-0.534-0.896-0.367-1.718  c0,0,0.369-4.107-16.333-0.158c-1.072,0.74,2.396,4.722,2.396,4.722s0.418,0.215,1.047-0.415c0.253,1.123,0.852,4.081,0.233,4.579  c1.245-0.771,1.868-1.946,1.676-4.125c2.122,0.461,3.742,1.64,4.692,3.779c0.304-1.4,0.603-2.799-0.384-4.126  c2.182,0.285,3.88,1.496,5.362,3.124c0.221-0.933,0.354-1.883,0-2.931c1.391,0.473,2.587,1.607,3.71,2.988  C86.03,49.391,86.24,45.529,83.997,43.672z"
   stroke-width="0.5"
   stroke="#000000"
   fill="#A04D32" />
<path
   id="path36"
   d="M67.975,71.318c0,0,6.761,13.59,17.595,13.991s10.834-2.73,10.834-2.73S80.877,85.627,67.975,71.318z"
   opacity="0.26" />
<path
   id="path38"
   d="M71.13,79.012c2.279,3.104,4.856,5.221,7.722,6.382c0,0-7.365,11.108-3.611,20.023  s13.125,11.053,23.321,21.249c7.942,7.942,17.158,24.961,17.158,24.961s-17.834-14.176-29.42-13.479c0,0-2.687-9.668-10.585-17.566  C64.471,109.337,59.547,94.707,71.13,79.012z"
   opacity="0.26" />
<path
   id="path40"
   d="M52.362,51.627c-3.874,2.501-8.419,7.096-24.415,8.083  C10.898,66.494,0.514,86.395,4.17,100.174c1.348,7.317,3.891,14.18,3.891,14.18c-0.887-5.919-1.383-11.397,1.033-13.599  c1.435,2.384,2.969,2.468,4.507,2.479c-1.59-2.404-1.788-4.808,0-7.212c1.489,1.525,2.992,1.881,4.507,1.353  c-2.128-2.449-1.867-4.848,0-7.211c1.388,5.022,4.462,7.453,7.662,9.689c-2.208-4.333-4.166-8.672-2.93-13.07  c1.323,0.729,2.595,0.644,3.831,0c-1.257-1.576-0.925-3.153,0-4.732c2.947,3.04,6.213,3.724,9.465,4.507  c-2.661-2.454-5.543-4.527-6.761-9.465c1.501-1.811,3.269-2.685,5.408-2.253c-1.901-1.167-1.65-2.543,0-4.057  c2.089,1.104,4.195,1.352,6.31,1.127C38.286,70.23,32.669,66.916,52.362,51.627z"
   fill="#FFFFFF"
   opacity="0.18" />
<path
   id="path42"
   d="M78.923,32.771c0.996-0.963,1.146-0.65,0.854,0.285c-0.982,2.36,0.353,4.647,0.797,6.206  l-3.871,0.114C76.811,37.105,76.95,34.582,78.923,32.771z"
   fill="#FFFFFF"
   opacity="0.27" />
</svg>
